<?xml version="1.0" standalone="no"?>
<!DOCTYPE svg PUBLIC "-//W3C//DTD SVG 20010904//EN"
 "http://www.w3.org/TR/2001/REC-SVG-20010904/DTD/svg10.dtd">
<svg version="1.0" xmlns="http://www.w3.org/2000/svg"
 width="512.000000pt" height="512.000000pt" viewBox="0 0 512.000000 512.000000"
 preserveAspectRatio="xMidYMid meet">

<g transform="translate(0.000000,512.000000) scale(0.100000,-0.100000)" stroke="none">
<path d="M2455 4904 c-338 -33 -603 -132 -848 -315 -294 -218 -507 -537 -598
-891 -45 -177 -49 -253 -49 -965 l0 -671 -195 -297 c-222 -338 -230 -355 -223
-500 3 -82 8 -101 41 -167 61 -124 177 -211 316 -238 77 -14 3247 -14 3327 1
154 28 283 138 336 287 29 82 28 207 -2 286 -13 33 -106 185 -211 343 l-189
283 0 673 c0 712 -4 788 -49 965 -74 288 -208 520 -425 738 -250 250 -531 394
-871 449 -95 15 -293 26 -360 19z"/>
<path d="M1960 634 c0 -4 14 -34 30 -68 61 -124 163 -222 295 -286 103 -49
169 -64 280 -63 192 1 360 80 487 230 39 46 108 165 108 187 0 3 -270 6 -600
6 -330 0 -600 -3 -600 -6z"/>
</g>
</svg>
