<?xml version="1.0" standalone="no"?>
<!DOCTYPE svg PUBLIC "-//W3C//DTD SVG 20010904//EN"
 "http://www.w3.org/TR/2001/REC-SVG-20010904/DTD/svg10.dtd">
<svg version="1.0" xmlns="http://www.w3.org/2000/svg"
 width="1024.000000pt" height="1024.000000pt" viewBox="0 0 1024.000000 1024.000000"
 preserveAspectRatio="xMidYMid meet">

<g transform="translate(0.000000,1024.000000) scale(0.100000,-0.100000)"
fill="#000000" stroke="none">
<path d="M1441 9381 c-11 -7 -7 -13 17 -25 17 -9 44 -16 59 -16 15 0 48 -10
73 -21 25 -11 99 -38 165 -60 66 -22 136 -49 156 -59 20 -11 44 -20 53 -20 8
0 30 -7 48 -15 18 -8 75 -31 127 -51 52 -19 113 -44 135 -54 23 -10 106 -47
186 -83 226 -101 501 -245 673 -352 18 -11 47 -29 66 -40 18 -11 48 -31 67
-45 18 -14 50 -36 70 -50 56 -39 178 -142 269 -228 135 -128 244 -286 300
-437 144 -383 3 -770 -447 -1227 -32 -32 -60 -58 -64 -58 -14 0 -137 -134
-149 -164 -16 -37 -9 -80 18 -121 22 -32 107 -115 119 -115 4 0 22 -13 40 -29
18 -15 44 -32 58 -36 14 -4 32 -13 40 -20 8 -7 76 -43 150 -80 74 -36 156 -77
183 -91 26 -13 54 -24 62 -24 9 0 33 -11 55 -25 22 -14 48 -25 57 -25 10 -1
43 -14 73 -30 30 -17 62 -30 71 -30 8 0 30 -11 49 -25 19 -14 42 -25 52 -25
10 0 38 -10 61 -22 23 -11 56 -24 72 -29 17 -4 68 -24 115 -44 47 -20 105 -44
130 -52 25 -9 50 -20 57 -25 6 -5 33 -17 60 -28 26 -10 86 -35 133 -55 47 -20
102 -43 123 -50 20 -8 52 -21 70 -29 17 -8 66 -28 107 -46 41 -18 98 -43 125
-55 28 -13 84 -38 125 -56 41 -18 117 -52 167 -76 51 -24 97 -43 103 -43 5 0
31 -11 57 -24 27 -13 100 -49 163 -79 63 -30 204 -99 313 -153 109 -55 210
-105 225 -112 15 -7 34 -17 42 -22 8 -6 40 -23 70 -38 51 -27 191 -101 269
-143 18 -10 41 -24 50 -32 9 -7 36 -24 61 -36 104 -53 119 -61 125 -71 4 -6
27 -22 53 -35 55 -30 76 -42 119 -72 17 -13 34 -23 36 -23 5 0 308 -198 354
-232 18 -13 49 -34 68 -48 20 -14 54 -38 75 -55 21 -16 55 -41 75 -55 31 -22
124 -94 205 -160 146 -119 356 -296 398 -335 95 -90 382 -381 398 -403 8 -12
19 -22 25 -22 12 0 12 3159 -1 3346 -26 384 -90 667 -233 1039 -55 143 -213
442 -307 580 -8 12 -24 35 -35 51 -131 194 -433 524 -590 646 -5 4 -40 31 -77
60 -37 29 -83 64 -103 78 -20 14 -51 37 -68 51 -18 15 -42 29 -53 33 -12 4
-29 15 -39 26 -10 11 -22 20 -27 20 -6 0 -28 13 -51 28 -56 37 -74 48 -127 75
-133 70 -204 104 -230 112 -14 4 -41 18 -60 31 -19 13 -42 24 -52 24 -10 0
-37 9 -60 19 -24 10 -65 26 -93 34 -27 8 -63 20 -80 25 -164 56 -457 120 -605
133 -68 6 -145 15 -170 22 -57 13 -4378 22 -4399 8z"/>
<path d="M1340 9273 c0 -5 60 -37 133 -72 72 -35 164 -82 202 -104 39 -22 86
-49 105 -59 19 -10 55 -32 80 -48 25 -17 58 -38 73 -48 16 -9 44 -28 63 -42
18 -14 49 -36 69 -50 176 -123 450 -380 499 -469 5 -9 13 -18 17 -21 5 -3 26
-34 49 -68 115 -178 165 -333 164 -512 0 -100 -3 -126 -28 -200 -61 -180 -166
-323 -365 -495 -135 -116 -138 -118 -221 -184 -41 -33 -89 -71 -106 -85 -18
-15 -36 -26 -41 -26 -5 0 -20 -11 -33 -25 -13 -14 -28 -25 -34 -25 -6 0 -22
-12 -36 -26 -14 -14 -70 -61 -125 -105 -54 -44 -113 -96 -130 -116 -16 -19
-37 -43 -45 -52 -36 -39 -93 -135 -111 -188 -24 -71 -25 -185 -2 -267 23 -84
99 -196 200 -293 46 -46 87 -83 90 -83 3 0 33 -24 66 -54 34 -29 67 -55 72
-57 6 -2 44 -26 85 -53 141 -92 176 -113 340 -204 138 -77 160 -89 425 -217
77 -38 147 -74 155 -80 8 -7 28 -15 44 -19 17 -4 41 -15 55 -25 14 -10 37 -22
51 -26 14 -4 42 -19 62 -31 21 -13 43 -24 50 -24 7 0 27 -9 43 -20 17 -11 71
-41 120 -66 50 -25 104 -52 120 -61 17 -9 39 -21 50 -27 11 -5 43 -22 70 -37
28 -15 68 -37 90 -48 22 -12 63 -34 90 -50 28 -16 61 -36 75 -43 14 -7 72 -42
130 -77 58 -35 123 -75 145 -88 40 -24 86 -54 164 -105 22 -16 60 -40 82 -55
23 -16 60 -40 83 -55 22 -15 50 -32 61 -37 12 -5 27 -16 35 -26 7 -9 26 -23
42 -31 16 -8 37 -22 46 -30 52 -44 91 -74 97 -74 4 0 22 -12 41 -27 18 -16 51
-41 74 -58 44 -32 159 -121 200 -154 114 -93 228 -188 245 -203 11 -10 36 -33
56 -51 57 -51 349 -328 399 -377 64 -65 207 -223 276 -305 67 -79 86 -101 131
-153 18 -20 33 -40 33 -44 0 -4 8 -14 17 -24 15 -15 45 -53 133 -166 11 -14
20 -31 20 -37 0 -5 6 -14 13 -18 12 -8 27 -29 162 -228 83 -122 241 -383 289
-476 4 -8 27 -50 51 -94 64 -115 195 -389 262 -545 8 -19 23 -51 32 -70 l17
-35 372 -3 c309 -2 372 0 372 11 0 8 -10 34 -23 58 -13 24 -29 60 -37 79 -55
142 -289 589 -453 865 -120 202 -403 608 -511 736 -17 20 -40 49 -51 63 -11
15 -31 40 -45 55 -14 16 -32 38 -40 49 -14 19 -63 75 -160 185 -96 109 -343
360 -485 492 -94 87 -422 365 -525 445 -18 14 -49 39 -70 55 -93 73 -333 243
-393 279 -18 10 -34 22 -37 26 -3 4 -19 14 -35 23 -17 8 -39 24 -49 36 -11 12
-25 21 -32 21 -7 0 -26 11 -42 25 -17 14 -34 25 -40 25 -5 0 -26 14 -47 30
-21 16 -42 30 -47 30 -5 0 -24 11 -42 25 -18 14 -36 25 -40 25 -4 0 -22 11
-40 25 -18 14 -37 25 -42 25 -5 0 -20 8 -34 18 -24 17 -133 79 -220 125 -25
14 -65 36 -90 49 -25 14 -72 40 -105 58 -33 18 -85 46 -115 63 -30 16 -62 33
-70 37 -20 9 -70 34 -95 47 -11 6 -51 25 -90 43 -38 18 -83 39 -100 48 -16 8
-37 19 -45 23 -15 8 -130 60 -185 85 -16 7 -56 25 -89 39 -32 15 -76 33 -98
41 -21 7 -49 20 -61 29 -12 8 -28 15 -36 15 -8 0 -37 11 -65 24 -127 61 -186
86 -199 86 -8 0 -35 11 -58 25 -24 14 -52 25 -61 25 -10 0 -39 11 -65 25 -27
13 -82 40 -123 58 -41 19 -137 64 -212 101 -75 36 -141 66 -145 66 -5 0 -25
12 -44 26 -19 14 -47 32 -64 40 -16 7 -57 32 -90 53 -33 22 -67 43 -75 47 -33
15 -183 152 -226 206 -25 31 -44 84 -44 121 0 106 108 236 400 482 175 147
163 136 323 291 125 122 225 233 269 299 47 71 108 175 108 184 0 5 9 31 21
58 50 118 67 334 35 478 -25 119 -100 289 -170 390 -81 115 -223 271 -320 350
-27 22 -56 47 -65 55 -38 34 -110 89 -179 136 -146 98 -177 117 -272 165 -25
12 -54 30 -65 39 -11 10 -35 22 -53 28 -18 6 -46 20 -61 32 -16 11 -35 20 -42
20 -11 0 -44 14 -164 70 -136 64 -185 80 -185 63z"/>
<path d="M1340 8132 l0 -942 28 12 c15 7 41 23 58 35 17 13 33 23 36 23 9 0
220 129 238 145 9 8 21 15 26 15 20 0 155 139 198 204 164 245 117 560 -143
951 -14 22 -38 54 -54 70 -15 17 -30 38 -33 48 -3 9 -9 17 -13 17 -4 0 -25 23
-46 52 -22 29 -49 62 -60 73 -44 47 -184 191 -209 214 l-26 24 0 -941z"/>
<path d="M1340 4261 c0 -244 4 -440 10 -457 5 -16 14 -78 20 -138 19 -206 99
-517 197 -766 45 -114 172 -380 196 -410 7 -8 23 -35 37 -59 132 -247 476
-644 740 -854 52 -42 109 -87 126 -101 18 -15 36 -26 41 -26 5 0 20 -11 33
-25 13 -14 28 -25 34 -25 6 0 27 -14 46 -30 19 -16 39 -30 43 -30 5 0 23 -10
40 -22 17 -12 47 -31 66 -41 20 -11 59 -32 86 -48 28 -15 61 -33 75 -39 37
-17 74 -36 166 -83 29 -15 58 -27 65 -27 8 0 27 -7 42 -15 16 -8 52 -22 80
-30 29 -8 75 -24 102 -34 79 -30 210 -68 330 -96 181 -42 706 -99 718 -78 19
35 -121 630 -178 758 -7 17 -20 53 -28 80 -22 73 -106 288 -117 299 -6 6 -10
16 -10 23 0 26 -171 373 -246 500 -24 41 -44 77 -44 79 0 4 -25 45 -89 144
-20 30 -40 63 -46 72 -17 28 -81 121 -111 160 -16 21 -45 59 -64 85 -245 335
-587 671 -980 963 -33 25 -77 57 -97 73 -19 15 -41 27 -48 27 -6 0 -22 11 -35
25 -13 14 -28 25 -33 25 -6 0 -24 11 -41 24 -17 13 -41 26 -52 30 -12 3 -29
15 -39 26 -10 11 -23 20 -30 20 -7 0 -31 14 -53 30 -23 17 -48 30 -56 30 -8 0
-28 11 -44 25 -17 14 -37 25 -45 25 -8 0 -25 8 -38 18 -13 10 -60 35 -104 56
-44 20 -102 47 -130 60 -122 57 -145 67 -235 101 -52 19 -115 44 -140 54 -51
21 -141 51 -152 51 -5 0 -8 -193 -8 -429z"/>
</g>
</svg>
