<svg width="32" height="32" viewBox="0 0 32 32" fill="none" xmlns="http://www.w3.org/2000/svg">
<path d="M15.9998 12C14.939 12 13.9216 12.4214 13.1714 13.1716C12.4213 13.9217 11.9998 14.9391 11.9998 16C11.9998 17.0609 12.4213 18.0783 13.1714 18.8284C13.9216 19.5786 14.939 20 15.9998 20C17.0607 20 18.0781 19.5786 18.8283 18.8284C19.5784 18.0783 19.9998 17.0609 19.9998 16C19.9998 14.9391 19.5784 13.9217 18.8283 13.1716C18.0781 12.4214 17.0607 12 15.9998 12ZM15.9998 9.33333C17.7679 9.33333 19.4636 10.0357 20.7139 11.286C21.9641 12.5362 22.6665 14.2319 22.6665 16C22.6665 17.7681 21.9641 19.4638 20.7139 20.714C19.4636 21.9643 17.7679 22.6667 15.9998 22.6667C14.2317 22.6667 12.536 21.9643 11.2858 20.714C10.0355 19.4638 9.33317 17.7681 9.33317 16C9.33317 14.2319 10.0355 12.5362 11.2858 11.286C12.536 10.0357 14.2317 9.33333 15.9998 9.33333ZM24.6665 9C24.6665 9.44202 24.4909 9.86595 24.1783 10.1785C23.8658 10.4911 23.4419 10.6667 22.9998 10.6667C22.5578 10.6667 22.1339 10.4911 21.8213 10.1785C21.5088 9.86595 21.3332 9.44202 21.3332 9C21.3332 8.55797 21.5088 8.13405 21.8213 7.82149C22.1339 7.50893 22.5578 7.33333 22.9998 7.33333C23.4419 7.33333 23.8658 7.50893 24.1783 7.82149C24.4909 8.13405 24.6665 8.55797 24.6665 9ZM15.9998 5.33333C12.7012 5.33333 12.1625 5.34266 10.6278 5.41066C9.5825 5.46 8.88117 5.6 8.2305 5.85333C7.65184 6.07733 7.2345 6.34533 6.7905 6.79066C6.37318 7.19386 6.05231 7.68611 5.85184 8.23066C5.5985 8.884 5.4585 9.584 5.4105 10.628C5.34117 12.1 5.33317 12.6147 5.33317 16C5.33317 19.2987 5.3425 19.8373 5.4105 21.372C5.45984 22.416 5.59984 23.1187 5.85184 23.768C6.0785 24.348 6.34517 24.7653 6.78784 25.208C7.23717 25.656 7.6545 25.924 8.22784 26.1453C8.8865 26.4 9.58784 26.5413 10.6278 26.5893C12.0998 26.6587 12.6145 26.6667 15.9998 26.6667C19.2985 26.6667 19.8372 26.6573 21.3718 26.5893C22.4145 26.54 23.1172 26.4 23.7678 26.148C24.3452 25.9227 24.7652 25.6547 25.2078 25.212C25.6572 24.7627 25.9252 24.3453 26.1465 23.772C26.3998 23.1147 26.5412 22.412 26.5892 21.372C26.6585 19.9 26.6665 19.3853 26.6665 16C26.6665 12.7013 26.6572 12.1627 26.5892 10.628C26.5398 9.58533 26.3998 8.88133 26.1465 8.23066C25.9456 7.68667 25.6253 7.19461 25.2092 6.79066C24.8061 6.37313 24.3138 6.05222 23.7692 5.852C23.1158 5.59866 22.4145 5.45866 21.3718 5.41066C19.8998 5.34133 19.3852 5.33333 15.9998 5.33333ZM15.9998 2.66666C19.6225 2.66666 20.0745 2.68 21.4958 2.74666C22.9158 2.81333 23.8825 3.036 24.7332 3.36666C25.6132 3.70533 26.3545 4.164 27.0958 4.904C27.7738 5.57053 28.2984 6.37678 28.6332 7.26666C28.9625 8.116 29.1865 9.084 29.2532 10.504C29.3158 11.9253 29.3332 12.3773 29.3332 16C29.3332 19.6227 29.3198 20.0747 29.2532 21.496C29.1865 22.916 28.9625 23.8827 28.6332 24.7333C28.2994 25.6237 27.7747 26.4302 27.0958 27.096C26.4291 27.7738 25.6229 28.2983 24.7332 28.6333C23.8838 28.9627 22.9158 29.1867 21.4958 29.2533C20.0745 29.316 19.6225 29.3333 15.9998 29.3333C12.3772 29.3333 11.9252 29.32 10.5038 29.2533C9.08384 29.1867 8.11717 28.9627 7.2665 28.6333C6.37627 28.2993 5.56987 27.7746 4.90384 27.096C4.22571 26.4296 3.70108 25.6233 3.3665 24.7333C3.03584 23.884 2.81317 22.916 2.7465 21.496C2.68384 20.0747 2.6665 19.6227 2.6665 16C2.6665 12.3773 2.67984 11.9253 2.7465 10.504C2.81317 9.08266 3.03584 8.11733 3.3665 7.26666C3.70015 6.37624 4.22491 5.56976 4.90384 4.904C5.57007 4.22564 6.37641 3.70097 7.2665 3.36666C8.11717 3.036 9.0825 2.81333 10.5038 2.74666C11.9252 2.684 12.3772 2.66666 15.9998 2.66666Z" fill="#001018"/>
</svg>
