<?xml version="1.0" standalone="no"?>
<!DOCTYPE svg PUBLIC "-//W3C//DTD SVG 20010904//EN"
 "http://www.w3.org/TR/2001/REC-SVG-20010904/DTD/svg10.dtd">
<svg version="1.0" xmlns="http://www.w3.org/2000/svg"
 width="753.000000pt" height="731.000000pt" viewBox="0 0 753.000000 731.000000"
 preserveAspectRatio="xMidYMid meet">

<g transform="translate(0.000000,731.000000) scale(0.100000,-0.100000)"
fill="#000000" stroke="none">
<path d="M3570 6934 c-171 -14 -283 -28 -401 -50 -846 -151 -1599 -625 -2115
-1330 -289 -396 -495 -876 -583 -1359 -26 -143 -33 -195 -26 -195 3 0 27 11
53 24 l47 24 18 105 c53 312 169 651 324 947 431 822 1217 1434 2119 1650 531
128 1110 117 1639 -31 391 -110 829 -335 1155 -595 119 -95 401 -379 500 -504
221 -278 415 -628 528 -950 167 -477 224 -1030 157 -1520 -79 -568 -305 -1098
-671 -1570 -110 -142 -363 -397 -509 -513 -508 -405 -1101 -645 -1747 -707
-182 -18 -584 -8 -753 18 -769 120 -1429 469 -1936 1025 -551 604 -848 1375
-849 2200 0 147 -1 157 -19 157 -10 0 -33 3 -50 6 l-31 6 0 -158 c1 -985 405
-1889 1131 -2529 542 -478 1199 -760 1918 -826 195 -17 586 -7 766 21 905 139
1671 594 2211 1313 555 739 774 1662 614 2581 -254 1450 -1432 2565 -2899
2742 -121 14 -498 26 -591 18z"/>
<path d="M4886 4309 c-27 -32 -33 -49 -16 -49 6 0 10 -9 10 -20 0 -11 5 -29
12 -40 10 -15 9 -22 -6 -39 -53 -58 58 -157 152 -136 37 8 87 58 76 76 -10 17
-12 59 -2 65 13 8 9 62 -6 99 -21 49 -68 75 -138 75 -51 0 -59 -3 -82 -31z
m214 -122 c-7 -17 -9 -10 -9 28 1 43 2 46 9 22 5 -16 5 -38 0 -50z"/>
<path d="M1919 4165 c-109 -35 -195 -202 -175 -338 15 -102 103 -177 206 -177
57 0 67 16 15 26 -40 7 -57 24 -26 24 33 0 25 17 -14 30 -51 17 -75 53 -75
114 0 122 99 178 164 93 79 -104 73 -420 -12 -542 -15 -22 -44 -48 -65 -58
l-37 -19 -27 33 c-16 18 -36 45 -45 60 -23 37 -104 273 -113 327 -11 67 -27
55 -40 -31 -5 -31 -11 -44 -20 -41 -36 14 -25 -192 16 -318 37 -112 79 -167
156 -204 47 -24 62 -26 131 -22 46 3 91 12 111 22 196 102 309 447 236 721
-59 222 -225 351 -386 300z m178 -504 c-2 -53 -10 -107 -16 -121 -9 -20 -9
-16 -3 25 4 28 6 90 5 140 -1 67 1 85 9 71 6 -11 9 -57 5 -115z"/>
<path d="M4444 4161 c-54 -25 -99 -80 -159 -195 -27 -53 -53 -96 -56 -96 -4 0
-10 11 -13 25 -9 35 -60 90 -102 110 -97 46 -212 9 -310 -98 -48 -53 -134
-204 -175 -307 l-14 -35 -3 75 c-2 54 -6 71 -13 60 -7 -11 -8 -2 -4 30 5 35 4
42 -5 30 -9 -12 -10 -10 -6 12 13 57 -63 169 -121 181 -62 12 -125 -20 -83
-43 11 -6 18 -15 15 -19 -3 -5 2 -26 11 -46 14 -34 13 -46 -10 -176 -30 -161
-32 -230 -10 -337 26 -129 62 -189 129 -217 50 -22 123 4 80 27 -9 6 -13 13
-9 17 5 3 71 130 146 281 135 271 199 375 255 411 39 26 43 24 43 -17 0 -21 4
-33 10 -29 6 3 10 0 10 -7 0 -7 3 -24 5 -38 5 -22 4 -22 -4 -5 -10 21 -10 13
9 -185 15 -162 44 -234 64 -163 6 20 17 33 30 35 11 2 23 15 29 33 6 17 13 32
17 35 3 3 14 25 24 50 28 73 125 251 165 305 38 50 85 84 98 72 6 -7 23 -286
27 -457 5 -202 64 -328 167 -351 44 -10 99 -4 99 11 0 5 -16 14 -35 20 -22 7
-35 18 -35 28 0 9 -7 47 -17 83 -16 64 -16 73 6 250 30 233 38 413 22 484 -31
139 -157 210 -277 156z m71 -233 c3 -18 4 -87 3 -153 l-4 -120 -2 133 c-1 73
-7 142 -12 153 -7 12 -7 19 -1 19 6 0 13 -15 16 -32z m-918 -390 c-2 -18 -4
-6 -4 27 0 33 2 48 4 33 2 -15 2 -42 0 -60z"/>
<path d="M5479 4147 c-94 -35 -184 -143 -225 -270 -23 -70 -27 -100 -28 -207
-1 -139 14 -213 64 -315 39 -82 92 -141 154 -172 103 -54 262 -25 358 65 60
56 101 135 96 188 l-3 39 -19 -35 c-11 -19 -21 -29 -23 -22 -7 20 -22 14 -37
-16 -33 -64 -105 -112 -190 -125 -90 -14 -143 24 -171 125 -9 35 -15 77 -13
93 3 28 6 30 51 33 31 2 47 -1 47 -9 0 -16 62 -3 133 28 194 87 257 337 127
501 -71 91 -220 136 -321 99z m223 -206 c38 -45 51 -85 44 -135 -8 -48 -46
-113 -87 -144 -40 -32 -178 -102 -199 -102 -18 0 -19 5 -14 48 18 142 78 300
130 341 40 32 96 28 126 -8z m-202 -80 c-11 -22 -29 -70 -40 -108 -16 -55 -19
-60 -15 -25 5 42 58 172 70 172 3 0 -4 -18 -15 -39z"/>
<path d="M2750 4112 c-75 -29 -105 -49 -157 -106 -201 -220 -240 -669 -70
-822 52 -47 94 -64 161 -64 122 0 249 86 309 210 37 77 50 93 44 55 -3 -16 4
-57 14 -92 25 -81 69 -128 127 -138 56 -9 78 8 45 33 -15 11 -20 22 -14 30 4
7 5 31 1 52 -4 24 2 97 16 197 13 87 23 189 24 226 0 77 -33 252 -59 313 -27
61 -77 112 -118 120 -40 8 -68 -10 -43 -27 12 -8 12 -12 2 -16 -9 -3 -11 -16
-6 -39 7 -36 -5 -45 -26 -19 -9 11 -9 15 -1 15 24 0 -9 38 -51 59 -61 29 -142
35 -198 13z m246 -149 c26 -17 26 -18 19 -107 -12 -160 -116 -438 -193 -518
-61 -63 -100 -50 -143 47 -38 85 -24 301 26 421 8 20 12 41 8 47 -4 6 -1 7 7
2 8 -5 11 -3 8 5 -2 8 19 37 47 67 l52 53 72 0 c50 0 79 -5 97 -17z m-321
-610 c9 -14 12 -22 5 -18 -22 13 -40 73 -44 147 l-5 73 13 -88 c8 -48 22 -99
31 -114z"/>
<path d="M6288 4101 c-201 -66 -318 -231 -318 -448 0 -58 5 -84 24 -121 51
-100 128 -146 332 -198 74 -19 149 -41 166 -50 28 -15 30 -19 24 -55 -7 -41
-51 -94 -94 -110 -55 -21 -185 6 -237 50 -52 43 -55 45 -55 24 0 -11 11 -36
24 -56 14 -20 22 -44 19 -55 -3 -14 8 -28 44 -54 63 -46 107 -59 192 -59 163
0 277 109 297 286 9 71 -10 129 -56 175 -50 50 -88 69 -230 115 -63 21 -136
48 -162 62 l-48 23 1 53 c2 124 83 221 207 248 48 10 57 9 100 -13 61 -30 100
-98 109 -192 3 -36 10 -63 14 -60 5 3 15 26 23 52 14 45 15 46 15 14 1 -22 5
-32 13 -30 35 12 35 171 1 249 -48 108 -132 160 -268 166 -59 2 -95 -2 -137
-16z m-278 -551 c6 -12 10 -24 7 -26 -11 -11 -37 80 -36 124 2 46 2 46 10 -15
4 -34 13 -71 19 -83z m155 -140 c33 -15 82 -33 108 -40 26 -7 46 -15 43 -17
-8 -8 -118 28 -175 57 -31 15 -69 43 -86 61 l-30 33 40 -34 c22 -18 67 -45
100 -60z"/>
<path d="M1285 4057 c-65 -31 -153 -129 -203 -224 -37 -73 -70 -106 -58 -60 7
31 -36 118 -76 152 -37 32 -66 39 -109 28 -36 -10 -52 -39 -23 -45 10 -2 19
-14 20 -28 2 -14 6 -41 10 -61 3 -22 -5 -97 -21 -188 -27 -159 -27 -184 1
-315 31 -143 87 -209 173 -204 48 3 65 22 30 33 -15 5 -18 9 -9 15 8 5 10 17
6 35 -4 16 -3 31 3 34 5 3 40 101 79 216 38 116 87 245 108 288 41 85 99 147
138 147 13 0 33 3 43 7 10 3 15 3 11 -2 -4 -4 -1 -13 6 -19 15 -12 46 -121 46
-162 0 -29 25 -32 40 -4 6 11 19 20 30 20 24 0 37 23 51 89 14 65 -3 150 -38
192 -61 72 -174 97 -258 56z"/>
<path d="M4903 3953 c-12 -2 -27 -10 -33 -18 -9 -11 -7 -16 9 -25 12 -6 21
-18 21 -27 0 -9 5 -31 12 -49 9 -26 7 -56 -15 -175 -32 -170 -33 -205 -8 -325
35 -170 89 -233 191 -224 40 3 45 11 19 31 -13 10 -19 19 -14 19 6 0 10 32 11
73 1 39 6 143 13 230 6 87 8 163 4 170 -9 15 -25 114 -23 150 1 37 -46 123
-81 148 -30 21 -71 30 -106 22z m194 -485 c-2 -18 -4 -6 -4 27 0 33 2 48 4 33
2 -15 2 -42 0 -60z"/>
<path d="M6060 2493 c1 -10 7 -29 15 -43 24 -43 19 -50 -35 -50 -27 0 -50 -4
-50 -10 0 -6 28 -10 63 -10 50 0 70 -5 99 -25 41 -27 48 -30 48 -15 0 5 -18
21 -39 36 -28 18 -46 41 -63 80 -23 54 -38 69 -38 37z"/>
<path d="M1412 2478 c-7 -7 -12 -38 -12 -69 0 -51 -3 -59 -22 -65 -25 -8 -58
25 -58 58 0 10 -4 16 -10 13 -29 -18 14 -95 54 -95 45 0 61 23 59 85 -2 42 1
57 12 61 22 9 45 -14 45 -43 0 -14 4 -21 10 -18 18 11 11 53 -12 69 -27 19
-50 20 -66 4z"/>
<path d="M1549 2198 c-41 -33 -75 -64 -77 -69 -7 -17 17 -9 48 17 l31 26 34
-38 c19 -22 34 -42 35 -46 0 -3 -14 -18 -31 -32 -17 -14 -29 -31 -27 -37 4
-12 158 107 158 122 0 14 -9 11 -45 -16 l-33 -26 -37 43 -36 43 37 31 c20 17
32 34 27 37 -5 3 -43 -21 -84 -55z"/>
<path d="M5833 2188 c-18 -22 -33 -45 -33 -52 1 -11 128 -117 149 -124 10 -3
55 42 74 75 19 32 -6 25 -34 -10 -35 -42 -48 -45 -74 -17 -17 19 -17 21 8 54
34 44 21 57 -15 14 -22 -27 -30 -31 -44 -22 -38 23 -39 40 -6 78 35 41 38 46
20 45 -7 0 -28 -18 -45 -41z"/>
<path d="M5666 1993 c-3 -4 19 -33 51 -65 65 -66 65 -66 -67 -43 -47 8 -86 15
-87 15 -15 0 9 -38 62 -95 76 -83 100 -81 27 2 -28 32 -49 59 -47 61 2 2 47
-4 100 -13 53 -10 99 -15 102 -11 5 4 -122 156 -131 156 -2 0 -6 -3 -10 -7z"/>
<path d="M1806 1910 c-43 -22 -83 -41 -90 -43 -6 -2 -8 -8 -4 -12 3 -4 22 -1
42 6 33 12 37 11 62 -11 25 -25 26 -32 9 -87 -4 -13 -3 -23 2 -23 10 0 83 175
83 198 0 19 -19 14 -104 -28z m65 -33 c-12 -32 -22 -34 -46 -7 -17 18 -16 19
16 33 39 16 44 11 30 -26z"/>
<path d="M2049 1689 c-33 -44 -58 -83 -54 -87 4 -4 20 8 36 27 27 33 29 34 47
18 16 -15 18 -25 12 -60 -5 -23 -6 -46 -3 -50 8 -14 23 15 23 45 0 22 7 31 34
42 39 16 60 48 51 76 -6 18 -64 70 -78 70 -3 0 -34 -36 -68 -81z m107 26 c24
-24 25 -28 11 -48 -20 -30 -38 -32 -70 -7 l-27 21 22 30 c27 35 32 36 64 4z"/>
<path d="M5349 1727 c-19 -13 -34 -30 -33 -38 1 -19 102 -159 115 -159 15 0
10 15 -12 44 -17 21 -19 29 -9 41 16 19 34 19 71 -1 46 -23 60 -10 17 16 -30
17 -38 28 -38 51 0 33 -31 69 -59 69 -10 0 -33 -10 -52 -23z m75 -13 c21 -21
20 -33 -6 -61 -27 -29 -35 -29 -59 0 -24 29 -24 41 4 60 28 20 42 21 61 1z"/>
<path d="M2363 1588 c-29 -38 -94 -171 -87 -178 26 -23 103 -60 108 -51 4 5
-14 22 -39 36 -25 15 -45 29 -45 30 0 13 25 55 32 55 5 0 23 -7 39 -16 46 -23
60 -10 17 16 -42 24 -45 35 -22 68 l15 22 45 -26 c25 -15 48 -24 51 -20 9 8
-3 18 -58 50 -36 21 -48 24 -56 14z"/>
<path d="M5140 1591 c0 -6 17 -42 37 -79 40 -74 40 -95 -2 -114 -32 -14 -52 3
-95 78 -17 30 -35 54 -40 54 -16 0 -12 -11 28 -80 44 -75 76 -94 120 -69 15 8
31 27 37 43 8 24 4 38 -25 93 -35 66 -60 96 -60 74z"/>
<path d="M4760 1403 c-25 -13 -39 -29 -49 -59 -13 -37 -12 -44 5 -80 14 -30
29 -42 59 -53 36 -12 45 -12 76 3 68 32 84 116 32 166 -38 37 -79 45 -123 23z
m109 -39 c30 -38 28 -87 -5 -113 -49 -38 -112 -23 -133 32 -31 81 85 148 138
81z"/>
<path d="M2840 1364 c0 -3 7 -32 15 -64 13 -51 13 -62 0 -100 -15 -42 -13 -63
4 -44 5 5 14 26 20 46 8 25 28 49 62 74 27 21 49 42 49 46 0 16 -23 7 -61 -23
-28 -22 -40 -27 -43 -17 -3 7 -10 30 -16 51 -6 20 -16 37 -21 37 -5 0 -9 -3
-9 -6z"/>
<path d="M4480 1298 c0 -7 7 -38 15 -68 21 -79 19 -98 -10 -112 -20 -9 -28 -8
-44 6 -29 27 -50 15 -23 -12 46 -46 112 -17 112 48 0 42 -30 150 -41 150 -5 0
-9 -6 -9 -12z"/>
<path d="M3193 1263 c-28 -5 -73 -57 -74 -86 -3 -59 13 -91 59 -113 48 -23
105 -6 132 39 24 39 25 68 4 108 -13 27 -69 62 -91 58 -4 -1 -18 -4 -30 -6z
m81 -44 c33 -26 36 -84 6 -117 -29 -31 -83 -30 -115 3 -73 72 28 178 109 114z"/>
<path d="M3518 1148 c-6 -82 5 -116 41 -134 28 -14 77 -1 90 25 13 24 24 158
15 173 -11 18 -22 -24 -23 -93 -1 -60 -20 -89 -57 -89 -36 0 -44 20 -44 107 0
46 -4 83 -9 83 -5 0 -11 -33 -13 -72z"/>
<path d="M3868 1213 c-16 -4 -18 -17 -18 -93 0 -49 3 -95 6 -104 12 -31 24
-16 24 29 0 41 2 45 24 45 17 0 27 -9 36 -30 13 -31 37 -56 46 -47 3 3 -4 23
-15 45 -18 35 -19 42 -6 52 8 7 15 27 15 46 0 51 -46 74 -112 57z m88 -50 c8
-31 -15 -53 -58 -53 -26 0 -28 3 -28 40 0 40 0 40 40 40 35 0 40 -3 46 -27z"/>
</g>
</svg>
