<svg width="32" height="32" viewBox="0 0 32 32" fill="none" xmlns="http://www.w3.org/2000/svg">
<path d="M29.5494 7.54133C28.5315 7.99159 27.452 8.2873 26.3467 8.41866C27.5117 7.72191 28.3837 6.62535 28.8001 5.33333C27.7067 5.984 26.5081 6.44 25.2587 6.68667C23.5332 4.84042 20.7818 4.38545 18.5538 5.57794C16.3257 6.77042 15.1782 9.31219 15.7574 11.772C11.2734 11.5473 7.09573 9.42932 4.26407 5.94533C3.76846 6.7966 3.50801 7.7643 3.5094 8.74933C3.5094 10.6827 4.4934 12.3907 5.9894 13.3907C5.10408 13.3628 4.23825 13.1237 3.46407 12.6933V12.7627C3.46462 15.4174 5.33542 17.7042 7.9374 18.2307C7.11556 18.4534 6.25381 18.4862 5.4174 18.3267C6.14691 20.5989 8.24067 22.1557 10.6267 22.2C8.29066 24.0347 5.32106 24.8655 2.37207 24.5093C4.921 26.1486 7.8882 27.0188 10.9187 27.016C21.1761 27.016 26.7854 18.5187 26.7854 11.1493C26.7854 10.9093 26.7787 10.6667 26.7681 10.4293C27.8599 9.64022 28.8022 8.66269 29.5507 7.54267L29.5494 7.54133Z" fill="#001018"/>
</svg>
